<svg width="65" height="64" viewBox="0 0 65 64" fill="none" xmlns="http://www.w3.org/2000/svg">
<path d="M63.7277 23.1416C62.308 17.7358 57.5007 15.5608 53.3666 15.8057C49.2442 16.0486 44.7383 18.7685 43.959 24.2972C43.1392 29.2855 40.0012 32.7766 34.9095 33.589C31.3043 33.9967 28.4096 36.1499 26.9982 39.4167C21.7426 37.6431 16.4188 37.0695 11.9932 37.8034C7.32638 38.577 4.17204 40.7158 3.11119 43.8256C2.05021 46.9354 3.2399 50.5561 6.4609 54.0206C9.53947 57.3319 14.1514 60.1506 19.447 61.9572C26.0406 64.2066 40.4141 66.5132 43.4583 57.5897C43.9128 56.2572 43.953 54.8309 43.5984 53.3633C45.431 52.9144 47.2562 52.2546 49.0374 51.3916C49.5028 51.1662 49.6972 50.6062 49.4717 50.1408C49.2462 49.6754 48.6864 49.4812 48.2208 49.7065C46.5037 50.5385 44.7459 51.1697 42.9851 51.5874C42.3608 50.1934 41.398 48.7816 40.1087 47.3948C37.3518 44.4295 33.3649 41.86 28.7591 40.0578C29.9233 37.4365 32.2056 35.7731 35.1386 35.4475C35.6907 35.386 36.2999 35.2272 36.8214 35.0822C39.3974 37.0965 42.696 37.0482 45.0385 34.7056C47.3358 32.4084 47.1933 29.2481 45.289 26.7505C45.5896 25.7887 45.7419 25.0003 45.8089 24.5889C45.81 24.5819 45.8111 24.575 45.812 24.568C46.483 19.7742 50.3604 17.8586 53.4768 17.675C57.3765 17.4435 60.913 19.7957 61.914 23.6073C62.8587 27.3724 62.4728 31.6315 60.7981 35.9238C58.9919 40.5536 55.8957 44.7516 51.8066 47.6084C51.3827 47.9046 51.2792 48.4882 51.5753 48.9122C51.8583 49.3171 52.4692 49.4297 52.8791 49.1435C57.2695 46.0759 60.6026 41.5771 62.5427 36.6045C64.3592 31.9478 64.7699 27.2959 63.7277 23.1416ZM38.7371 48.6697C40.7215 50.8042 42.7227 53.946 41.686 56.9851C39.0587 64.6861 25.4682 62.0327 20.0515 60.1849C15.0435 58.4764 10.7039 55.8344 7.83209 52.7455C5.10269 49.8097 4.05557 46.8566 4.88323 44.4301C5.71101 42.0035 8.34479 40.3061 12.2993 39.6506C16.4602 38.9609 21.5097 39.5219 26.5177 41.2303C31.5259 42.9388 35.8654 45.5808 38.7371 48.6697ZM44.4477 28.8931C45.085 30.144 45.3111 31.7847 43.7143 33.3815C42.4051 34.6907 40.7323 35.0883 39.0372 34.2711C41.4772 33.1387 43.2928 31.2898 44.4477 28.8931Z" fill="#0E0F6A"/>
<path d="M56.1359 37.7948C56.2746 37.8675 56.4232 37.9019 56.5697 37.9019C56.9068 37.9019 57.2326 37.7193 57.3999 37.4C61.5597 29.4606 59.1719 23.454 59.0683 23.2022C58.872 22.7253 58.3276 22.4984 57.8499 22.6932C57.3723 22.8879 57.1426 23.4336 57.3356 23.912C57.3411 23.9255 57.8836 25.2947 57.9562 27.5244C58.023 29.5772 57.6929 32.8062 55.7412 36.531C55.5012 36.989 55.6779 37.5549 56.1359 37.7948Z" fill="#0E0F6A"/>
<path d="M17.2224 53.9333C14.0391 52.28 11.3569 50.0364 9.25052 47.265C8.93756 46.8533 8.35021 46.7732 7.93863 47.0861C7.52692 47.3989 7.4469 47.9863 7.75974 48.398C11.8321 53.7562 17.9639 57.2897 25.4924 58.6165C28.8057 59.2005 32.375 59.4643 35.7277 59.0069C36.2401 58.9368 36.5987 58.4648 36.5287 57.9525C36.4587 57.4402 35.9863 57.0815 35.4743 57.1516C35.4321 57.1574 31.1845 57.7183 25.8174 56.7724C22.6753 56.2185 19.7835 55.2633 17.2224 53.9333Z" fill="#0E0F6A"/>
<path d="M20.4124 43.3926C20.309 43.8993 20.636 44.3937 21.1427 44.4971C23.6031 44.9991 25.9113 45.7573 28.003 46.751C28.4422 46.9596 29.0401 46.7496 29.2505 46.3071C29.4723 45.84 29.2736 45.2816 28.8066 45.0596C26.5781 44.001 24.1256 43.1944 21.5169 42.6623C21.0105 42.5589 20.5158 42.8857 20.4124 43.3926Z" fill="#0E0F6A"/>
<path d="M15.9203 32.1184C19.5634 33.1599 23.6355 32.8975 26.7021 30.4929C29.5394 28.2681 31.0133 24.6872 30.8522 20.41C30.6953 16.2447 28.9969 11.8951 26.0696 8.16188C23.1425 4.4288 19.3233 1.74197 15.3157 0.596227C11.2001 -0.580472 7.37118 -0.00310808 4.53392 2.22171C1.92411 4.26814 0.447303 7.52534 0.375897 11.3931C0.366285 11.9102 0.777743 12.337 1.29469 12.3465C1.80651 12.3577 2.23857 11.9448 2.24805 11.4277C2.27839 9.78886 2.5966 8.28609 3.17396 6.98081C5.56581 5.96777 8.53676 6.02557 11.5654 7.15421C14.7713 8.34863 17.8434 10.6727 20.2155 13.698C21.8862 15.8285 23.1541 18.238 23.882 20.6658C24.0201 21.1262 24.5916 21.4304 25.0477 21.2937C25.543 21.1451 25.8241 20.6232 25.6757 20.128C24.8811 17.4783 23.5025 14.8553 21.6889 12.5425C17.0574 6.63551 10.3088 3.57168 4.74376 4.57336C5.03613 4.25678 5.34984 3.96154 5.68939 3.69527C10.6399 -0.186616 19.1214 2.33543 24.5962 9.31735C30.0707 16.2993 30.4973 25.1375 25.5467 29.0194C20.596 32.9011 12.1147 30.3792 6.63989 23.3972C4.60282 20.7991 3.20155 17.8631 2.58748 14.9064C2.48237 14.4 1.9864 14.075 1.48044 14.1801C0.974109 14.2852 0.648913 14.7808 0.754149 15.2871C1.42639 18.5248 2.95213 21.7287 5.16646 24.5526C8.09347 28.2857 11.9127 30.9726 15.9203 32.1184Z" fill="#0E0F6A"/>
</svg>

