<svg width="64" height="64" viewBox="0 0 64 64" fill="none" xmlns="http://www.w3.org/2000/svg">
<path d="M63.0624 60.3748C59.7106 60.3748 59.5753 62.1248 56.8493 62.1248C54.4856 62.1248 54.2564 60.9408 52.0541 60.5042C51.5463 60.4033 51.0529 60.7336 50.9523 61.2415C50.8516 61.7493 51.1816 62.2427 51.6895 62.3433C53.3859 62.6797 53.9594 63.9997 56.8493 63.9997C60.201 63.9997 60.3364 62.2497 63.0624 62.2497C63.5801 62.2497 63.9999 61.83 63.9999 61.3122C63.9999 60.7945 63.5801 60.3748 63.0624 60.3748Z" fill="#0E0F6A"/>
<path d="M47.3341 61.2229C46.4255 61.7225 45.8567 62.1249 44.4239 62.1249C41.698 62.1249 41.5762 60.3748 38.2113 60.3748C34.86 60.3748 34.7248 62.1249 31.9991 62.1249C29.2851 62.1249 29.1409 60.3748 25.787 60.3748C22.4356 60.3748 22.3003 62.1249 19.5745 62.1249C16.8489 62.1249 16.7269 60.3748 13.3622 60.3748C10.0108 60.3748 9.87558 62.1249 7.14981 62.1249C4.42404 62.1249 4.30228 60.3748 0.937507 60.3748C0.419753 60.3748 0 60.7946 0 61.3124C0 61.8301 0.419753 62.2499 0.937507 62.2499C3.66328 62.2499 3.78503 63.9999 7.14981 63.9999C10.5012 63.9999 10.6365 62.2499 13.3622 62.2499C16.0763 62.2499 16.2206 63.9999 19.5745 63.9999C22.9259 63.9999 23.0612 62.2499 25.787 62.2499C28.5126 62.2499 28.6345 63.9999 31.9991 63.9999C35.3504 63.9999 35.4857 62.2499 38.2113 62.2499C40.9489 62.2499 41.0521 63.9999 44.4239 63.9999C46.261 63.9999 47.1032 63.4901 48.2379 62.8657C48.6915 62.6162 48.857 62.0461 48.6075 61.5925C48.358 61.1389 47.7879 60.9731 47.3341 61.2229Z" fill="#0E0F6A"/>
<path d="M61.1211 50.4765C60.5676 50.4765 60.1172 50.0261 60.1172 49.4726C60.1172 48.9549 59.6975 48.5351 59.1797 48.5351C58.662 48.5351 58.2422 48.9549 58.2422 49.4726C58.2422 51.06 59.5337 52.3515 61.1211 52.3515C62.7085 52.3515 64 51.06 64 49.4726C64 48.2132 63.1872 47.1401 62.0586 46.7504V36.6635C63.1872 36.2738 64 35.2008 64 33.9414C64 32.682 63.1871 31.609 62.0586 31.2192C62.0554 7.84893 62.065 8.73169 62.0547 8.61819C62.0126 8.14906 61.6182 7.76568 61.1211 7.76568H57.2383C56.8958 7.76568 56.5806 7.95243 56.4161 8.25293C53.4607 13.6502 46.9896 25.4677 44.6085 29.8161V28.9635C44.6085 28.4457 44.1887 28.026 43.671 28.026H41.0157C40.6203 25.1129 38.0944 6.5068 37.8504 4.70866C37.8302 4.53803 37.7633 4.37803 37.6598 4.24503L34.6853 0.366998C34.3094 -0.123131 33.5716 -0.120881 33.1975 0.366998L30.2231 4.24515C30.1159 4.38303 30.0536 4.54216 30.0334 4.70191C29.3871 9.46244 28.0237 19.5058 26.8671 28.0261H23.2303V26.0183H24.2342C24.7519 26.0183 25.1717 25.5986 25.1717 25.0808V21.198C25.1717 20.6803 24.7519 20.2605 24.2342 20.2605H23.2303V15.465H24.2342C24.7519 15.465 25.1717 15.0452 25.1717 14.5275V10.6446C25.1717 10.1268 24.7519 9.70707 24.2342 9.70707H9.6407V6.76167C9.6407 6.24392 9.22095 5.82417 8.70319 5.82417C8.18544 5.82417 7.76569 6.24392 7.76569 6.76167V9.70695H5.7578V4.82041C5.7578 4.30265 5.33804 3.8829 4.82029 3.8829C4.30253 3.8829 3.88278 4.30265 3.88278 4.82041V9.70707H0.937507C0.419753 9.70707 0 10.1268 0 10.6446V14.5274C0 15.0451 0.419753 15.4649 0.937507 15.4649H1.94139V20.2604H0.937507C0.419753 20.2604 0 20.6802 0 21.1979V25.0807C0 25.5984 0.419753 26.0182 0.937507 26.0182H1.94139V39.6744H0.937507C0.419753 39.6744 0 40.0942 0 40.6119V44.4947C0 45.0125 0.419753 45.4322 0.937507 45.4322H1.94139V52.2604C1.94139 52.7782 2.36114 53.1979 2.8789 53.1979H3.88278V57.1517C3.17915 56.7991 2.30789 56.4922 0.937507 56.4922C0.419753 56.4922 0 56.9119 0 57.4297C0 57.9475 0.419753 58.3672 0.937507 58.3672C3.66328 58.3672 3.78503 60.1172 7.14981 60.1172C10.5012 60.1172 10.6365 58.3672 13.3622 58.3672C16.0763 58.3672 16.2206 60.1172 19.5745 60.1172C22.9259 60.1172 23.0612 58.3672 25.787 58.3672C28.5126 58.3672 28.6345 60.1172 31.9991 60.1172C35.3504 60.1172 35.4857 58.3672 38.2113 58.3672C40.9991 58.3672 41.0016 60.1172 44.4239 60.1172C47.7752 60.1172 47.9104 58.3672 50.6361 58.3672C53.3655 58.3672 53.497 60.1172 56.8493 60.1172C60.2011 60.1172 60.3365 58.3672 63.0625 58.3672C63.5802 58.3672 64 57.9475 64 57.4297C64 56.9119 63.5802 56.4922 63.0625 56.4922C59.7107 56.4922 59.5753 58.2422 56.8493 58.2422C55.6106 58.2422 54.9884 57.9284 54.3154 57.5511V53.1979H55.2977C55.8117 53.1979 56.2381 52.7793 56.2344 52.2533V45.4322H57.2383C57.7561 45.4322 58.1758 45.0125 58.1758 44.4947V40.6119C58.1758 40.0942 57.7561 39.6744 57.2383 39.6744H48.9496C50.2911 36.5247 59.0423 15.9767 60.1836 13.2971V31.2194C59.055 31.6091 58.2422 32.6821 58.2422 33.9415C58.2422 35.2009 59.0551 36.2739 60.1836 36.6637V47.5314C60.1836 48.0491 60.6034 48.4689 61.1211 48.4689C61.6746 48.4689 62.125 48.9193 62.125 49.4728C62.125 50.0263 61.6746 50.4765 61.1211 50.4765ZM55.5403 19.4141H52.442L54.6046 15.4649H57.2223L55.5403 19.4141ZM53.0598 25.2383H49.2528L51.4153 21.2892H54.7418L53.0598 25.2383ZM50.5793 31.0625H46.0635L48.226 27.1133H52.2612L50.5793 31.0625ZM30.7281 13.5235H35.4269L30.114 18.0481L30.7281 13.5235ZM31.6207 6.94767L35.8643 11.6485H30.9826L31.6207 6.94767ZM37.9543 19.4141H31.4019L37.2753 14.4121L37.9543 19.4141ZM36.6364 9.70557L33.0728 5.75792H36.1005L36.6364 9.70557ZM38.2089 21.2892L38.9638 26.8502L31.64 21.2892H38.2089ZM33.9414 2.47801L35.0188 3.8829H32.864L33.9414 2.47801ZM29.5679 22.07L37.4118 28.026H28.7594L29.5679 22.07ZM40.1899 29.901H40.1961H40.2004H42.7333V39.6744H40.7031V33.9415C40.7031 33.4238 40.2833 33.004 39.7656 33.004H34.0429C33.5251 33.004 33.1054 33.4238 33.1054 33.9415C33.1054 34.4593 33.5251 34.879 34.0429 34.879H38.8281V39.6744H27.1132V34.879H29.957C30.4747 34.879 30.8945 34.4593 30.8945 33.9415C30.8945 33.4238 30.4747 33.004 29.957 33.004H26.1757C25.658 33.004 25.2382 33.4238 25.2382 33.9415V39.6744H23.2304V29.901H40.1899ZM3.81641 15.4649H14.4259C14.9436 15.4649 15.3634 15.0451 15.3634 14.5274C15.3634 14.0096 14.9436 13.5899 14.4259 13.5899H1.87501V11.5821H23.2969V13.5899H18.5118C17.994 13.5899 17.5743 14.0096 17.5743 14.5274C17.5743 15.0451 17.994 15.4649 18.5118 15.4649H21.3555V20.2604H3.81641V15.4649ZM1.87501 22.1354H23.2969V24.1432H1.87501V22.1354ZM3.81641 26.0182H21.3554V39.6744H3.81641V26.0182ZM45.5235 51.3229L49.4728 46.0572L53.4219 51.3229H45.5235ZM33.875 51.3229L37.8242 46.0572L41.7733 51.3229H33.875ZM22.2267 51.3229L26.1758 46.0572L30.125 51.3229H22.2267ZM10.5782 51.3229L14.5274 46.0572L18.4766 51.3229H10.5782ZM43.6485 50.6979L39.6993 45.4322H47.5977L43.6485 50.6979ZM32 50.6979L28.0508 45.4322H35.9493L32 50.6979ZM20.3517 50.6979L16.4024 45.4322H24.3008L20.3517 50.6979ZM8.70319 50.6979L4.75404 45.4322H12.6525L8.70319 50.6979ZM3.81641 47.3072L6.82805 51.3228H3.81641V47.3072ZM7.14981 58.2422C6.57543 58.2422 6.13355 58.1747 5.7578 58.0647V53.1979H13.5897V56.4951C10.0423 56.4037 9.93133 58.2422 7.14981 58.2422ZM19.5745 58.2422C17.4955 58.2422 17.1104 57.3418 15.4649 56.8002V53.1979H23.2969V56.9434C21.942 57.5003 21.4674 58.2422 19.5745 58.2422ZM25.1719 56.5142V53.1978H33.004V58.1571C32.716 58.2112 32.388 58.2421 31.9991 58.2421C29.1805 58.2422 28.9365 56.2344 25.1719 56.5142ZM38.2113 56.4922C36.5792 56.4922 35.655 56.9276 34.8789 57.3569V53.1979H42.7333V57.9641C41.5347 57.5057 40.7068 56.4922 38.2113 56.4922ZM52.4404 56.7109C51.9459 56.5779 51.3608 56.4922 50.6361 56.4922C47.3792 56.4922 47.1076 58.1732 44.6084 58.2398V53.1979H52.4403L52.4404 56.7109ZM54.3594 49.4479L51.3478 45.4324H54.3594V49.4479ZM56.3008 43.5572C53.3983 43.5572 4.81591 43.5572 1.87501 43.5572V41.5494H56.3008V43.5572ZM44.6084 39.6744V33.5748C44.8247 33.3994 44.8676 33.2205 45.0367 32.9376H49.7806L46.9114 39.6746H44.6084V39.6744ZM58.0208 13.5899H55.6312L57.7937 9.6407H59.7027L58.0208 13.5899ZM61.1211 32.9375C61.6746 32.9375 62.125 33.3879 62.125 33.9414C62.125 34.4949 61.6746 34.9453 61.1211 34.9453C60.5676 34.9453 60.1172 34.4949 60.1172 33.9414C60.1172 33.3879 60.5676 32.9375 61.1211 32.9375Z" fill="#0E0F6A"/>
<path d="M10.6446 29.121H6.76172C6.24397 29.121 5.82422 29.5407 5.82422 30.0585C5.82422 30.5762 6.24397 30.996 6.76172 30.996H10.6445C11.1622 30.996 11.582 30.5762 11.582 30.0585C11.582 29.5407 11.1623 29.121 10.6446 29.121Z" fill="#0E0F6A"/>
<path d="M14.5273 30.996H18.4101C18.9278 30.996 19.3476 30.5762 19.3476 30.0585C19.3476 29.5407 18.9278 29.121 18.4101 29.121H14.5273C14.0096 29.121 13.5898 29.5407 13.5898 30.0585C13.5898 30.5762 14.0096 30.996 14.5273 30.996Z" fill="#0E0F6A"/>
<path d="M10.6446 33.0038H6.76172C6.24397 33.0038 5.82422 33.4235 5.82422 33.9413C5.82422 34.459 6.24397 34.8788 6.76172 34.8788H10.6445C11.1622 34.8788 11.582 34.459 11.582 33.9413C11.582 33.4235 11.1623 33.0038 10.6446 33.0038Z" fill="#0E0F6A"/>
<path d="M18.4101 33.0038H14.5273C14.0096 33.0038 13.5898 33.4235 13.5898 33.9413C13.5898 34.459 14.0096 34.8788 14.5273 34.8788H18.4101C18.9278 34.8788 19.3476 34.459 19.3476 33.9413C19.3476 33.4235 18.9278 33.0038 18.4101 33.0038Z" fill="#0E0F6A"/>
</svg>

