<svg width="65" height="65" viewBox="0 0 65 65" fill="none" xmlns="http://www.w3.org/2000/svg">
<g clip-path="url(#clip0_3003_175)">
<path d="M54.1712 35.9162C54.6302 35.9162 55.0314 35.5786 55.0981 35.111L56.4431 25.6894H57.5714C58.0893 25.6894 58.5089 25.2698 58.5089 24.7519V20.8647C58.5089 20.3468 58.0893 19.9272 57.5714 19.9272H51.3995L47.6185 12.3653C47.4597 12.0478 47.1352 11.8471 46.78 11.8471H42.7465C42.4355 11.8471 42.1471 12.0011 41.9736 12.254L39.5727 7.78956C39.4092 7.48555 39.0921 7.29605 38.7471 7.29605H35.1318L33.8318 4.87666C33.6684 4.57253 33.3512 4.3829 33.0061 4.3829H28.4895C28.1344 4.3829 27.8098 4.58353 27.651 4.90116L24.178 11.8472H21.919C21.5737 11.8472 21.2565 12.037 21.0931 12.341L19.9605 14.4489H16.7918C16.4467 14.4489 16.1295 14.6385 15.9662 14.9424L13.2855 19.9272H7.09498C6.57722 19.9272 6.15747 20.3468 6.15747 20.8647V24.7519C6.15747 25.2698 6.57722 25.6894 7.09498 25.6894H8.22399L11.8383 51.0049H10.9778C10.46 51.0049 10.0403 51.4245 10.0403 51.9424V54.8769H8.03249V53.873C8.03249 53.3552 7.61273 52.9355 7.09498 52.9355C6.57722 52.9355 6.15747 53.3552 6.15747 53.873V57.7558C6.15747 58.2737 6.57722 58.6933 7.09498 58.6933C7.61273 58.6933 8.03249 58.2737 8.03249 57.7558V56.7519H13.9949C13.3935 60.8485 16.5828 64.5 20.685 64.5C21.4622 64.5 24.6192 64.0762 24.6192 62.7326C24.6192 61.9821 23.922 61.7957 23.6809 61.7957C23.0572 61.7957 22.5261 62.625 20.6851 62.625C17.9906 62.625 15.7983 60.4328 15.7983 57.7382C15.7983 55.2218 17.7104 53.1435 20.1581 52.8799H21.2121C23.6597 53.1435 25.5717 55.2218 25.5717 57.7382C25.5717 58.78 25.2976 59.1592 25.2976 59.5085C25.2976 60.5983 26.8098 60.7934 27.1286 59.793C27.3396 59.1306 27.4468 58.4392 27.4468 57.7382C27.4468 57.4032 27.4223 57.0739 27.375 56.7518H37.292C36.6907 60.8485 39.8797 64.4999 43.9819 64.4999C48.0904 64.4999 51.2725 60.843 50.6719 56.7518H56.6342V57.7557C56.6342 58.2736 57.0539 58.6932 57.5718 58.6932C58.0896 58.6932 58.5093 58.2736 58.5093 57.7557V53.8729C58.5093 53.355 58.0896 52.9354 57.5718 52.9354C57.0539 52.9354 56.6342 53.355 56.6342 53.8729V54.8768H54.6265V51.9423C54.6265 51.4244 54.2068 51.0048 53.689 51.0048H52.8292C54.6202 38.4358 54.5246 39.1901 54.5246 39.0632C54.5246 38.8037 54.322 38.1268 53.5875 38.1268C53.1285 38.1268 52.7258 38.4635 52.6588 38.9317L50.9352 51.0046C48.7186 50.999 16.3846 51.0045 13.7327 51.0046L10.118 25.6894H12.1029C12.5029 28.5702 14.8385 45.3896 15.2258 48.1777C15.2902 48.6413 15.6864 48.9864 16.1544 48.9864H48.5139C48.9818 48.9864 49.3782 48.6413 49.4426 48.1777C49.6762 46.4951 52.3927 26.935 52.5656 25.6894H54.5494L53.2421 34.8461C53.1726 35.3319 53.5258 35.9162 54.1712 35.9162ZM43.9816 62.625C41.2871 62.625 39.095 60.4328 39.095 57.7382C39.095 55.2218 41.007 53.1435 43.4546 52.8799H44.5086C46.9563 53.1435 48.8683 55.2218 48.8683 57.7382C48.8684 60.4328 46.6762 62.625 43.9816 62.625ZM52.7512 52.8799V54.8769H50.1077C49.7556 54.126 49.2693 53.45 48.6799 52.8799H52.7512ZM39.2834 52.8799C38.6941 53.45 38.2079 54.126 37.8557 54.8769H26.8109C26.4588 54.126 25.9725 53.45 25.3832 52.8799H39.2834ZM15.9864 52.8799C15.397 53.45 14.9109 54.126 14.5587 54.8769H11.9153V52.8799H15.9864ZM43.3071 13.7221H46.2007L49.3031 19.9272H41.6554L39.8537 16.3239H41.3486C41.6939 16.3239 42.0111 16.1341 42.1744 15.8301L43.3071 13.7221ZM27.766 14.9842H30.9349C31.2802 14.9842 31.5974 14.7945 31.7608 14.4905L32.8934 12.3826H35.787L39.5592 19.9272H25.1079C25.6517 18.9159 26.8743 16.6425 27.766 14.9842ZM29.0689 6.25779H32.4456L33.7456 8.67719C33.9089 8.98132 34.2262 9.17094 34.5713 9.17094H38.1868C40.9649 14.3227 40.8036 14.0719 40.9171 14.2087L40.7882 14.4487C38.7931 14.4492 38.9565 14.448 38.9171 14.45L37.2048 11.0256C37.046 10.7081 36.7215 10.5073 36.3663 10.5073H32.3328C31.9875 10.5073 31.6703 10.6971 31.5069 11.0011L30.3743 13.109C26.9528 13.1093 27.2064 13.1081 27.1633 13.11C26.853 12.5926 26.8048 12.0812 26.2499 11.8953L29.0689 6.25779ZM17.3522 16.3239H20.5211C20.8663 16.3239 21.1836 16.1341 21.347 15.8301L22.4796 13.7222H25.3731L25.8274 14.6307L22.9791 19.9273H15.4145L17.3522 16.3239ZM48.7738 39.3611H15.8944L15.0743 33.4551H49.5941L48.7738 39.3611ZM16.9706 47.1114L16.1547 41.2361H48.5133L47.6974 47.1114H16.9706ZM49.8544 31.5801H14.8139L13.9959 25.6894H21.5033C22.0211 25.6894 22.4408 25.2698 22.4408 24.7519C22.4408 24.2341 22.0211 23.8144 21.5033 23.8144C19.6841 23.8144 9.64287 23.8144 8.03236 23.8144V21.8022H56.6339V23.8144C55.5756 23.8144 54.9016 23.8144 25.5891 23.8144C25.0714 23.8144 24.6516 24.2341 24.6516 24.7519C24.6516 25.2698 25.0714 25.6894 25.5891 25.6894H50.6723L49.8544 31.5801Z" fill="#0E0F6A"/>
<path d="M17.8059 57.7382C17.8059 59.3255 19.0974 60.6171 20.6848 60.6171C22.2722 60.6171 23.5637 59.3255 23.5637 57.7382C23.5637 56.1508 22.2722 54.8593 20.6848 54.8593C19.0973 54.8593 17.8059 56.1508 17.8059 57.7382ZM21.6887 57.7382C21.6887 58.2918 21.2383 58.7421 20.6848 58.7421C20.1313 58.7421 19.6809 58.2917 19.6809 57.7382C19.6809 57.1847 20.1313 56.7343 20.6848 56.7343C21.2383 56.7343 21.6887 57.1847 21.6887 57.7382Z" fill="#0E0F6A"/>
<path d="M43.9817 54.8593C42.3943 54.8593 41.1028 56.1508 41.1028 57.7382C41.1028 59.3255 42.3943 60.6171 43.9817 60.6171C45.569 60.6171 46.8605 59.3255 46.8605 57.7382C46.8605 56.1508 45.569 54.8593 43.9817 54.8593ZM43.9817 58.7422C43.428 58.7422 42.9778 58.2918 42.9778 57.7383C42.9778 57.1848 43.4282 56.7344 43.9817 56.7344C44.5352 56.7344 44.9855 57.1848 44.9855 57.7383C44.9855 58.2918 44.5353 58.7422 43.9817 58.7422Z" fill="#0E0F6A"/>
<path d="M52.0771 7.59152C54.0234 5.52602 54.5027 5.44552 54.5027 4.77752C54.5027 3.93764 53.4866 3.53052 52.9022 4.11452C50.9558 6.18002 50.4766 6.26052 50.4766 6.92852C50.4767 7.76439 51.4907 8.17764 52.0771 7.59152Z" fill="#0E0F6A"/>
<path d="M52.1931 12.4197C52.1931 12.9376 52.6127 13.3572 53.1306 13.3572H56.9051C57.423 13.3572 57.8426 12.9376 57.8426 12.4197C57.8426 11.9018 57.423 11.4822 56.9051 11.4822H53.1306C52.6129 11.4822 52.1931 11.902 52.1931 12.4197Z" fill="#0E0F6A"/>
<path d="M45.9231 6.14948C46.441 6.14948 46.8606 5.72986 46.8606 5.21198V1.43748C46.8606 0.91961 46.441 0.499985 45.9231 0.499985C45.4052 0.499985 44.9856 0.91961 44.9856 1.43748V5.21198C44.9856 5.72986 45.4052 6.14948 45.9231 6.14948Z" fill="#0E0F6A"/>
<path d="M15.1938 7.86615C16.0333 7.86615 16.4411 6.85015 15.8566 6.26565C13.7911 4.3194 13.7108 3.84015 13.0428 3.84015C12.2031 3.84015 11.7955 4.85602 12.3799 5.44052C14.4453 7.3869 14.5258 7.86615 15.1938 7.86615Z" fill="#0E0F6A"/>
<path d="M9.70239 13.3572H13.4769C13.9946 13.3572 14.4144 12.9376 14.4144 12.4197C14.4144 11.9018 13.9946 11.4822 13.4769 11.4822H9.70239C9.18464 11.4822 8.76489 11.9018 8.76489 12.4197C8.76489 12.9376 9.18464 13.3572 9.70239 13.3572Z" fill="#0E0F6A"/>
<path d="M20.6848 6.14948C21.2026 6.14948 21.6223 5.72986 21.6223 5.21198V1.43748C21.6223 0.91961 21.2026 0.499985 20.6848 0.499985C20.1671 0.499985 19.7473 0.91961 19.7473 1.43748V5.21198C19.7473 5.72986 20.1671 6.14948 20.6848 6.14948Z" fill="#0E0F6A"/>
</g>
<defs>
<clipPath id="clip0_3003_175">
<rect width="64" height="64" fill="white" transform="translate(0.333252 0.5)"/>
</clipPath>
</defs>
</svg>

