<svg width="64" height="65" viewBox="0 0 64 65" fill="none" xmlns="http://www.w3.org/2000/svg">
<path d="M21.12 45.87L17.88 45.59L20.64 41.51L22.52 42.63C22.84 42.83 23.26 42.83 23.58 42.61C23.9 42.39 24.08 42.01 24.02 41.63L22.62 32.01C22.48 30.99 21.88 30.11 21.02 29.57C20.14 29.03 19.1 28.91 18.12 29.23L8.67997 32.37C8.29997 32.49 8.03997 32.83 7.99997 33.21C7.95997 33.59 8.13997 33.97 8.47997 34.17L10.56 35.43L7.49997 40.09C6.31997 41.89 5.57997 43.99 5.39997 46.15L5.01997 50.43C4.73997 53.67 7.15997 56.51 10.4 56.79L20.14 57.61C20.3 57.61 20.46 57.63 20.64 57.63C23.66 57.63 26.26 55.29 26.5 52.23C26.64 50.67 26.14 49.13 25.12 47.93C24.1 46.73 22.68 45.99 21.12 45.87ZM9.17997 41.21L12.8 35.67C12.94 35.45 13 35.17 12.94 34.89C12.88 34.61 12.72 34.39 12.48 34.25L11.36 33.59L18.74 31.13C19.14 30.99 19.58 31.05 19.96 31.27C20.32 31.49 20.56 31.87 20.64 32.29L21.74 39.83L20.86 39.31C20.4 39.03 19.82 39.17 19.52 39.61L15.72 45.21C15.72 45.21 15.66 45.31 15.64 45.37C13.06 45.01 10.58 44.21 8.23997 42.97C8.49997 42.35 8.81997 41.77 9.17997 41.21ZM20.32 55.61L10.58 54.79C8.43997 54.61 6.83997 52.73 7.01997 50.59L7.39997 46.33C7.43997 45.85 7.51997 45.37 7.61997 44.89C10.48 46.35 13.56 47.23 16.76 47.49L20.94 47.83C23.08 48.01 24.68 49.89 24.5 52.03C24.32 54.17 22.46 55.75 20.3 55.59L20.32 55.61Z" fill="#0E0F6A"/>
<path d="M58.4001 45.41L54.1201 36.61C52.7001 33.69 49.1601 32.47 46.2401 33.89C43.3201 35.31 42.1001 38.85 43.5201 41.77L44.9401 44.69L40.0201 44.39V42.21C40.0201 41.83 39.8201 41.47 39.4601 41.31C39.1001 41.15 38.7001 41.19 38.4001 41.43L30.8401 47.55C30.0401 48.19 29.5801 49.15 29.5601 50.17C29.5601 51.19 29.9801 52.17 30.7601 52.83L38.2801 59.33C38.4601 59.49 38.7001 59.57 38.9401 59.57C39.0801 59.57 39.2201 59.55 39.3601 59.49C39.7201 59.33 39.9401 58.97 39.9401 58.59V56.17L45.5201 56.41C47.6801 56.49 49.8401 56.07 51.8001 55.13L55.6601 53.27C57.0801 52.59 58.1401 51.39 58.6601 49.89C59.1801 48.41 59.0801 46.81 58.3801 45.39L58.4001 45.41ZM45.6201 54.41L39.0001 54.13C38.7201 54.09 38.4601 54.21 38.2601 54.41C38.0601 54.59 37.9601 54.85 37.9401 55.13V56.43L32.0601 51.35C31.7401 51.07 31.5601 50.67 31.5601 50.23C31.5601 49.81 31.7601 49.39 32.1001 49.13L38.0201 44.33V45.35C38.0201 45.89 38.4201 46.33 38.9601 46.35L45.7201 46.75C45.7201 46.75 45.8401 46.75 45.9001 46.75C46.9001 49.17 47.4801 51.71 47.6201 54.33C46.9601 54.41 46.2801 54.45 45.6201 54.43V54.41ZM56.7801 49.25C56.4401 50.23 55.7401 51.03 54.8201 51.47L50.9601 53.31C50.5201 53.51 50.0601 53.69 49.6001 53.85C49.4001 50.65 48.5801 47.55 47.1601 44.65L45.3201 40.87C44.3801 38.95 45.1801 36.61 47.1201 35.67C47.6601 35.41 48.2401 35.27 48.8201 35.27C50.2601 35.27 51.6601 36.07 52.3201 37.45L56.6001 46.25C57.0601 47.19 57.1201 48.25 56.7801 49.23V49.25Z" fill="#0E0F6A"/>
<path d="M32.14 21.05L34.8 25.19L33.02 26.47C32.7 26.69 32.56 27.09 32.62 27.47C32.7 27.85 32.98 28.15 33.34 28.25L42.74 30.73C43.04 30.81 43.32 30.85 43.62 30.85C44.32 30.85 45.02 30.63 45.6 30.21C46.44 29.61 46.96 28.69 47.04 27.67L47.86 17.75C47.9 17.37 47.7 16.99 47.36 16.79C47.02 16.59 46.6 16.63 46.28 16.85L44.32 18.27L41.22 13.63C40.02 11.83 38.38 10.35 36.48 9.31L32.7 7.27C31.3 6.53 29.72 6.38999 28.22 6.84999C26.72 7.30999 25.48 8.32999 24.74 9.72999L20.16 18.37C18.64 21.25 19.74 24.81 22.62 26.33C24 27.07 25.6 27.21 27.1 26.75C28.6 26.29 29.84 25.27 30.58 23.87L32.1 20.99L32.14 21.05ZM38.34 13.21C38.8 13.69 39.22 14.21 39.6 14.77L43.26 20.27C43.42 20.49 43.64 20.65 43.92 20.69C44.18 20.75 44.46 20.69 44.68 20.51L45.74 19.75L45.1 27.49C45.06 27.91 44.84 28.31 44.5 28.55C44.14 28.79 43.7 28.87 43.3 28.77L35.94 26.83L36.76 26.23C37.18 25.91 37.3 25.33 37.02 24.87L33.36 19.17C33.36 19.17 33.3 19.07 33.26 19.03C34.62 16.79 36.32 14.83 38.36 13.17L38.34 13.21ZM28.84 22.99C28.36 23.91 27.54 24.59 26.54 24.89C25.54 25.19 24.5 25.09 23.58 24.61C21.68 23.61 20.96 21.25 21.96 19.35L26.54 10.71C27.02 9.79 27.84 9.11 28.84 8.81C29.22 8.69 29.6 8.63 30 8.63C30.62 8.63 31.24 8.79 31.8 9.09L35.58 11.11C36 11.35 36.42 11.59 36.82 11.89C34.36 13.95 32.34 16.43 30.84 19.29L28.88 23.01L28.84 22.99Z" fill="#0E0F6A"/>
</svg>

